<svg width="30" height="28" viewBox="0 0 30 28" fill="none" xmlns="http://www.w3.org/2000/svg">
<path d="M25.797 3.5C26.1175 3.5 26.4249 3.62292 26.6516 3.84171C26.8782 4.0605 27.0055 4.35725 27.0055 4.66667V11.0833C26.2042 11.0833 25.4357 11.3906 24.8691 11.9376C24.3025 12.4846 23.9841 13.2265 23.9841 14C23.9841 14.7735 24.3025 15.5154 24.8691 16.0624C25.4357 16.6094 26.2042 16.9167 27.0055 16.9167V23.3333C27.0055 23.6428 26.8782 23.9395 26.6516 24.1583C26.4249 24.3771 26.1175 24.5 25.797 24.5H4.04282C3.72229 24.5 3.41489 24.3771 3.18824 24.1583C2.96159 23.9395 2.83426 23.6428 2.83426 23.3333V16.9167C3.63559 16.9167 4.40409 16.6094 4.97072 16.0624C5.53734 15.5154 5.85567 14.7735 5.85567 14C5.85567 13.2265 5.53734 12.4846 4.97072 11.9376C4.40409 11.3906 3.63559 11.0833 2.83426 11.0833V4.66667C2.83426 4.35725 2.96159 4.0605 3.18824 3.84171C3.41489 3.62292 3.72229 3.5 4.04282 3.5H25.797ZM24.5884 5.83333H5.25139V9.296L5.43992 9.3905C6.25972 9.82222 6.95054 10.4504 7.44586 11.2147C7.94117 11.9789 8.2243 12.8533 8.26796 13.7538L8.2728 14C8.27295 14.9429 8.00996 15.8685 7.51146 16.6794C7.01297 17.4904 6.29738 18.1567 5.43992 18.6083L5.25139 18.704V22.1667H24.5884V18.7028L24.3999 18.6095C23.5801 18.1778 22.8893 17.5496 22.3939 16.7853C21.8986 16.0211 21.6155 15.1467 21.5718 14.2462L21.567 14C21.567 12.012 22.7115 10.2818 24.3999 9.39167L24.5884 9.29483V5.83333Z" fill="#908CA8"/>
</svg>
