<svg width="30" height="28" viewBox="0 0 30 28" fill="none" xmlns="http://www.w3.org/2000/svg">
<path d="M6.62018 2.33331H23.5401C23.8606 2.33331 24.168 2.45623 24.3947 2.67502C24.6213 2.89381 24.7486 3.19056 24.7486 3.49998V25.8335C24.7488 25.9378 24.7199 26.0402 24.6651 26.1301C24.6103 26.22 24.5315 26.2941 24.437 26.3446C24.3425 26.3951 24.2356 26.4202 24.1276 26.4173C24.0196 26.4144 23.9144 26.3836 23.8229 26.3281L15.0801 21.035L6.33738 26.327C6.24597 26.3824 6.14085 26.4132 6.03295 26.4161C5.92504 26.4191 5.81829 26.3941 5.72379 26.3437C5.62929 26.2933 5.55049 26.2194 5.4956 26.1297C5.4407 26.04 5.4117 25.9377 5.41162 25.8335V3.49998C5.41162 3.19056 5.53895 2.89381 5.7656 2.67502C5.99225 2.45623 6.29965 2.33331 6.62018 2.33331ZM22.3315 4.66665H7.82875V22.6706L15.0801 18.2828L22.3315 22.6706V4.66665Z" fill="#908CA8"/>
</svg>
