<svg width="33" height="32" viewBox="0 0 33 32" fill="none" xmlns="http://www.w3.org/2000/svg">
<path d="M31 16C31 8.27083 24.5052 2 16.5 2C8.49479 2 2 8.27083 2 16C2 23.7292 8.49479 30 16.5 30C24.5052 30 31 23.7292 31 16Z" stroke="#908CA8" stroke-width="3" stroke-miterlimit="10"/>
<path d="M21.8622 10.254L15.2239 12.8177C14.768 12.9938 14.3539 13.2574 14.0067 13.5926C13.6595 13.9279 13.3864 14.3277 13.2041 14.7679L10.5488 21.1773C10.5158 21.2568 10.5077 21.3439 10.5256 21.4278C10.5434 21.5117 10.5863 21.5887 10.649 21.6492C10.7118 21.7098 10.7915 21.7512 10.8784 21.7684C10.9653 21.7856 11.0555 21.7778 11.1378 21.746L17.7761 19.1823C18.232 19.0062 18.6462 18.7426 18.9934 18.4074C19.3406 18.0721 19.6136 17.6723 19.7959 17.2321L22.4512 10.8227C22.4842 10.7432 22.4923 10.6561 22.4744 10.5722C22.4566 10.4883 22.4137 10.4114 22.351 10.3508C22.2882 10.2902 22.2085 10.2488 22.1216 10.2316C22.0347 10.2144 21.9445 10.2222 21.8622 10.254ZM16.5 17.3125C16.2311 17.3125 15.9683 17.2355 15.7448 17.0913C15.5212 16.9471 15.347 16.7421 15.2441 16.5023C15.1412 16.2624 15.1143 15.9985 15.1668 15.7439C15.2192 15.4893 15.3487 15.2555 15.5388 15.0719C15.7289 14.8884 15.9711 14.7634 16.2348 14.7127C16.4985 14.6621 16.7718 14.6881 17.0202 14.7874C17.2686 14.8868 17.4809 15.055 17.6303 15.2708C17.7797 15.4867 17.8594 15.7404 17.8594 16C17.8594 16.3481 17.7162 16.6819 17.4612 16.9281C17.2063 17.1742 16.8605 17.3125 16.5 17.3125Z" fill="#908CA8"/>
</svg>
